<?xml version="1.0" encoding="utf-8"?>
<!-- Generator: Adobe Illustrator 16.0.0, SVG Export Plug-In . SVG Version: 6.00 Build 0)  -->
<!DOCTYPE svg PUBLIC "-//W3C//DTD SVG 1.1//EN" "http://www.w3.org/Graphics/SVG/1.1/DTD/svg11.dtd">
<svg version="1.1" xmlns="http://www.w3.org/2000/svg" xmlns:xlink="http://www.w3.org/1999/xlink" x="0px" y="0px"
	 width="216.667px" height="95.333px" viewBox="0 0 216.667 95.333" enable-background="new 0 0 216.667 95.333"
	 xml:space="preserve">
<g id="Calque_2">
</g>
<g id="Calque_1">
	<g>
		<g>
			<path fill="#002E33" d="M58.593,9.312c-21.917,0-32.875,10.959-32.875,21.917c0,21.916,21.917,54.792,32.875,54.792
				c10.958,0,32.875-32.876,32.875-54.792C91.468,20.271,80.51,9.312,58.593,9.312z"/>
		</g>
		<g>
			<path fill="#00464F" d="M102.127,37.654c0.516-1.093,1.235-1.94,2.158-2.542c0.923-0.601,2.241-0.902,3.952-0.902
				c1.896,0,3.573,0.513,5.03,1.538c1.457,1.025,2.186,2.344,2.186,3.957v9.225l0.041,1.886c0,0.984,0.082,1.633,0.246,1.947
				c0.164,0.314,0.642,0.513,1.435,0.595l0.902,0.041v0.656h-12.693v-0.656l0.529-0.041c0.731,0,1.179-0.164,1.342-0.492
				c0.163-0.328,0.244-1.011,0.244-2.05l0.041-1.886v-8.364l-0.041-1.681c0-1.148-0.19-1.968-0.569-2.46
				c-0.38-0.492-0.949-0.738-1.708-0.738c-0.922,0-1.58,0.301-1.973,0.902c-0.394,0.602-0.712,1.216-0.956,1.845v10.496l0.041,1.886
				c0,1.066,0.074,1.756,0.223,2.07c0.149,0.314,0.603,0.472,1.363,0.472l0.529,0.041v0.656H91.714v-0.656l0.943-0.041
				c0.792-0.082,1.271-0.273,1.435-0.574c0.164-0.3,0.246-0.957,0.246-1.968l0.041-1.886V28.675l-0.041-1.681
				c0-0.738-0.117-1.25-0.349-1.538c-0.232-0.287-0.731-0.471-1.497-0.553l-1.558-0.082v-0.656h11.357v9.717
				c0,0.902-0.014,1.66-0.041,2.275C102.224,36.772,102.183,37.272,102.127,37.654z"/>
			<path fill="#00464F" d="M140.832,44.337c0,2.897-1.101,5.309-3.3,7.236c-2.201,1.927-4.791,2.891-7.77,2.891
				c-3.144,0-5.774-0.964-7.893-2.891c-2.119-1.927-3.177-4.339-3.177-7.236c0-2.897,1.072-5.31,3.218-7.237
				c2.146-1.927,4.762-2.891,7.852-2.891c3.034,0,5.637,0.958,7.811,2.87C139.745,38.994,140.832,41.413,140.832,44.337z
				 M132.673,44.296c0-0.383-0.028-1.148-0.082-2.296c-0.055-1.148-0.082-1.831-0.082-2.05c0-1.476-0.226-2.692-0.677-3.649
				c-0.451-0.957-1.155-1.435-2.111-1.435c-0.875,0-1.544,0.499-2.009,1.497c-0.465,0.998-0.697,2.193-0.697,3.587
				c0,0.52-0.021,1.155-0.062,1.907c-0.041,0.752-0.076,1.565-0.103,2.439c0,0.383,0.027,1.168,0.082,2.357
				c0.055,1.189,0.082,1.879,0.082,2.07c0,1.476,0.226,2.692,0.676,3.649c0.451,0.957,1.141,1.435,2.071,1.435
				c0.902,0,1.585-0.492,2.05-1.476c0.464-0.984,0.697-2.187,0.697-3.608c0-0.546,0.013-1.195,0.041-1.947
				C132.577,46.025,132.618,45.198,132.673,44.296z"/>
			<path fill="#00464F" d="M141.692,54.054v-0.656l1.107-0.041c0.792-0.082,1.271-0.273,1.435-0.574
				c0.164-0.3,0.246-0.957,0.246-1.968l0.041-1.886V39.13l-0.041-1.681c-0.055-0.656-0.137-1.148-0.246-1.476
				c-0.11-0.328-0.602-0.533-1.476-0.615l-1.066-0.082V34.62h10.66v3.444c0.188-0.492,0.59-1.23,1.207-2.214
				s2.046-1.476,4.288-1.476c1.312,0,2.425,0.458,3.342,1.374c0.915,0.916,1.374,2.003,1.374,3.26c0,1.257-0.431,2.303-1.292,3.136
				c-0.861,0.834-1.921,1.25-3.178,1.25c-1.039,0-1.934-0.362-2.686-1.086c-0.752-0.724-1.127-1.551-1.127-2.48
				c0-0.683,0.123-1.312,0.369-1.886c0.273-0.519,0.546-1.052,0.82-1.599c-0.137-0.191-0.273-0.287-0.41-0.287
				c-0.707,0-1.32,0.424-1.842,1.271c-0.521,0.848-0.782,1.64-0.782,2.378v9.471l0.041,2.05c0,0.766,0.094,1.285,0.283,1.558
				c0.188,0.273,0.661,0.451,1.415,0.533l1.213,0.082v0.656H141.692z"/>
			<path fill="#00464F" d="M177.075,34.497v-5.248l-0.081-1.886c0-0.902-0.137-1.503-0.406-1.804
				c-0.271-0.3-0.853-0.505-1.746-0.615l-1.908-0.123v-0.656h12.054v25.379l0.041,1.681c0,0.738,0.129,1.25,0.389,1.538
				s0.759,0.472,1.497,0.554l1.312,0.082v0.656h-11.069v-2.05c-0.302,0.547-0.786,1.093-1.456,1.64s-1.934,0.82-3.792,0.82
				c-2.624,0-4.756-0.916-6.396-2.747c-1.64-1.831-2.46-4.318-2.46-7.462c0-3.034,0.82-5.467,2.46-7.298
				c1.64-1.831,3.772-2.747,6.396-2.747c1.913,0,3.184,0.26,3.813,0.779c0.628,0.52,1.092,1.066,1.394,1.64L177.075,34.497z
				 M176.952,37.449c-0.11-0.683-0.41-1.203-0.902-1.558c-0.491-0.355-1.065-0.533-1.722-0.533c-0.848,0-1.483,0.403-1.907,1.209
				c-0.424,0.806-0.697,1.722-0.82,2.747c-0.123,1.025-0.199,1.954-0.226,2.788c-0.027,0.834-0.041,1.606-0.041,2.317v1.845
				c0,0.52,0.062,1.421,0.185,2.706c0.123,1.285,0.396,2.337,0.82,3.157c0.424,0.82,1.073,1.23,1.948,1.23
				c1.503,0,2.378-0.724,2.624-2.173c0.054-0.628,0.095-1.742,0.123-3.341c0.026-1.599,0.041-2.794,0.041-3.587v-3.772
				C177.075,39.335,177.034,38.324,176.952,37.449z"/>
		</g>
		<g>
			<path fill="#002E33" d="M93.224,70.093v7.226c0,0.621,0.042,1.018,0.128,1.188c0.042,0.086,0.192,0.177,0.448,0.273
				c0.256,0.097,0.757,0.177,1.504,0.241c0.747,0.064,1.771,0.096,3.072,0.096v0.32H84.552v-0.32c1.088,0,1.989-0.032,2.704-0.096
				c0.714-0.064,1.2-0.145,1.456-0.241c0.256-0.096,0.405-0.187,0.448-0.273c0.085-0.171,0.128-0.567,0.128-1.188V60.818
				c0-0.577-0.043-0.952-0.128-1.124c-0.043-0.085-0.171-0.171-0.384-0.257c-0.661-0.235-2.069-0.353-4.224-0.353v-0.288h12.416
				c2.539,0,4.544,0.587,6.016,1.76c1.387,1.109,2.08,2.56,2.08,4.352c0,1.216-0.533,2.325-1.6,3.328
				c-1.323,1.238-3.115,1.856-5.376,1.856H93.224z M93.224,69.805h3.245c1.778,0,3.021-0.46,3.728-1.38
				c0.599-0.792,0.899-2.054,0.899-3.787c0-1.819-0.396-3.199-1.189-4.14s-2.014-1.413-3.663-1.413h-1.542
				c-0.45,0-0.782,0.033-0.996,0.097c-0.214,0.064-0.349,0.198-0.402,0.401c-0.054,0.204-0.08,0.616-0.08,1.235V69.805z"/>
			<path fill="#002E33" d="M108.392,67.896c0-0.43-0.043-0.699-0.128-0.807c-0.15-0.215-0.288-0.344-0.416-0.387
				c-0.384-0.107-1.259-0.161-2.624-0.161v-0.288l6.176-0.48v4.064c0.085-0.875,0.384-1.696,0.896-2.464
				c0.704-1.066,1.589-1.6,2.656-1.6c0.405,0,0.842,0.134,1.312,0.4c0.469,0.267,0.784,0.603,0.944,1.008s0.24,0.768,0.24,1.088
				c0,0.854-0.355,1.44-1.066,1.76c-0.172,0.086-0.398,0.128-0.678,0.128c-0.431,0-0.797-0.149-1.099-0.448
				c-0.302-0.298-0.453-0.747-0.453-1.344c0-0.384,0.145-0.768,0.436-1.152c0.291-0.384,0.63-0.533,1.018-0.448
				c-0.127-0.448-0.51-0.672-1.147-0.672c-0.616,0-1.232,0.451-1.848,1.351c-0.807,1.158-1.211,2.648-1.211,4.47v5.981
				c0,0.429,0.032,0.708,0.096,0.836c0.042,0.064,0.138,0.129,0.288,0.193c0.448,0.15,1.376,0.225,2.784,0.225v0.288h-9.344v-0.288
				c0.618,0,1.178-0.021,1.68-0.064c0.501-0.043,0.933-0.129,1.296-0.258c0.128-0.107,0.192-0.419,0.192-0.935V67.896z"/>
			<path fill="#002E33" d="M130.983,72.717c0,2.07-0.715,3.787-2.144,5.152c-1.301,1.237-2.763,1.856-4.384,1.856
				c-1.664,0-3.115-0.576-4.352-1.728c-1.451-1.344-2.176-3.104-2.176-5.28c0-2.069,0.715-3.776,2.144-5.12
				c1.301-1.216,2.763-1.824,4.384-1.824c1.643,0,3.093,0.576,4.352,1.728C130.258,68.824,130.983,70.563,130.983,72.717z
				 M127.655,72.717c0-2.368-0.203-4.032-0.608-4.992c-0.469-1.109-1.333-1.664-2.592-1.664c-1.152,0-1.974,0.534-2.464,1.6
				c-0.491,1.067-0.736,2.752-0.736,5.056c0,2.347,0.219,4.054,0.656,5.12c0.437,1.067,1.285,1.6,2.544,1.6
				c1.152,0,1.973-0.544,2.464-1.632C127.41,76.717,127.655,75.021,127.655,72.717z"/>
			<path fill="#002E33" d="M145.768,69.663c0.17-0.978,0.414-1.753,0.733-2.328c0.531-0.914,1.264-1.424,2.199-1.53
				c0.149,0,0.313-0.011,0.494-0.032c0.181-0.021,0.313-0.032,0.398-0.032c1.317,0,2.369,0.406,3.156,1.219
				c0.658,0.685,0.988,1.497,0.988,2.438v8.5c0,0.407,0.032,0.674,0.096,0.802c0.042,0.085,0.144,0.16,0.304,0.224
				c0.16,0.064,0.448,0.118,0.864,0.161s0.762,0.064,1.04,0.064v0.288h-7.584v-0.288c0.512,0,0.906-0.016,1.184-0.048
				c0.277-0.032,0.576-0.134,0.896-0.306c0.128-0.107,0.192-0.407,0.192-0.9v-8.136c0-1.007-0.086-1.79-0.258-2.347
				c-0.279-0.879-0.784-1.319-1.514-1.319c-0.752,0-1.375,0.354-1.868,1.061c-0.559,0.794-0.988,2.23-1.289,4.31v6.432
				c0,0.429,0.032,0.708,0.096,0.836c0.042,0.064,0.138,0.124,0.288,0.177c0.149,0.053,0.421,0.107,0.816,0.16
				c0.395,0.054,0.762,0.081,1.104,0.081v0.288h-7.616v-0.288c0.811,0,1.44-0.075,1.888-0.225l0.224-0.096
				c0.128-0.107,0.192-0.418,0.192-0.933v-8.136c0-1.029-0.085-1.811-0.256-2.347c-0.277-0.879-0.789-1.319-1.536-1.319
				c-0.96,0-1.707,0.611-2.24,1.833c-0.363,0.858-0.651,2.08-0.864,3.666v6.303c0,0.429,0.032,0.708,0.096,0.836
				c0.042,0.064,0.144,0.129,0.304,0.193c0.16,0.064,0.448,0.118,0.864,0.161s0.763,0.064,1.04,0.064v0.288h-8.096v-0.288
				c0.448,0,0.901-0.021,1.36-0.064c0.458-0.043,0.869-0.128,1.232-0.257c0.128-0.106,0.192-0.417,0.192-0.93v-9.721
				c0-0.192-0.005-0.385-0.016-0.577c-0.011-0.192-0.059-0.343-0.144-0.45c-0.15-0.214-0.278-0.342-0.384-0.385
				c-0.32-0.107-1.056-0.161-2.208-0.161v-0.288l5.76-0.544v4.083c0.15-1.021,0.375-1.829,0.674-2.424
				c0.493-0.978,1.221-1.52,2.185-1.626c0.214-0.021,0.401-0.037,0.563-0.048c0.161-0.01,0.284-0.016,0.37-0.016
				c1.371,0,2.409,0.383,3.116,1.148C145.446,67.59,145.768,68.515,145.768,69.663z"/>
			<path fill="#002E33" d="M161.959,70.335c0.128-1.106,0.427-2.063,0.896-2.872c0.661-1.127,1.536-1.691,2.624-1.691
				c1.536,0,2.805,0.587,3.808,1.76c1.088,1.28,1.632,3.04,1.632,5.28c0,1.536-0.502,3.008-1.504,4.416
				c-1.173,1.664-2.656,2.496-4.448,2.496c-0.939,0-1.686-0.5-2.24-1.499c-0.384-0.702-0.64-1.51-0.768-2.423v8.784
				c0,0.427,0.032,0.705,0.096,0.833c0.042,0.064,0.139,0.128,0.288,0.192c0.448,0.15,1.376,0.225,2.784,0.225v0.288h-9.344v-0.288
				c0.619,0,1.179-0.021,1.68-0.064c0.501-0.043,0.933-0.129,1.296-0.257c0.128-0.107,0.192-0.417,0.192-0.931v-16.6
				c0-0.428-0.064-0.728-0.192-0.899c-0.128-0.171-0.256-0.278-0.384-0.321c-0.384-0.107-1.237-0.161-2.56-0.161v-0.288l6.144-0.544
				V70.335z M162.151,72.846c0,2.144,0.243,3.773,0.731,4.887c0.488,1.115,1.156,1.672,2.004,1.672c1.018,0,1.723-0.476,2.116-1.43
				c0.392-0.954,0.588-2.685,0.588-5.193c0-2.272-0.117-3.858-0.35-4.759c-0.339-1.308-1.04-1.961-2.1-1.961
				c-0.721,0-1.368,0.547-1.94,1.64C162.501,69.009,162.151,70.724,162.151,72.846z"/>
			<path fill="#002E33" d="M181.127,72.621v1.472c0,0.491,0.011,0.96,0.032,1.408c0,1.494-0.171,2.518-0.513,3.072
				c-0.469,0.768-1.375,1.152-2.72,1.152c-1.28,0-2.219-0.309-2.815-0.928c-0.598-0.618-0.896-1.504-0.896-2.656v-9.088h-2.56
				v-0.288c1.75-0.429,3.069-1.446,3.955-3.053c0.713-1.286,1.07-2.732,1.07-4.339h0.543v6.752h3.68v0.928h-3.68v8.681
				c0,1.149,0.042,1.894,0.126,2.234c0.21,0.809,0.681,1.213,1.415,1.213c0.858,0,1.424-0.467,1.696-1.401
				c0.188-0.637,0.283-1.847,0.283-3.63v-1.528H181.127z"/>
		</g>
		<g>
			<path fill="#439DA8" d="M76.135,42.042h0.854c-0.391,1.449-0.822,2.653-1.294,3.613c-0.472,0.96-1.123,1.961-1.953,3.003
				c-3.304,4.069-7.723,6.104-13.257,6.104c-3.483,0-6.73-0.81-9.741-2.429c-3.011-1.619-5.404-3.8-7.178-6.543
				c-1.774-2.742-2.661-5.701-2.661-8.875c0-1.888,0.35-3.764,1.05-5.627c0.7-1.863,1.721-3.605,3.064-5.225
				c1.343-1.619,2.901-3.007,4.675-4.163c2.686-1.758,5.786-2.637,9.302-2.637c1.172,0,2.283,0.102,3.333,0.305
				c1.05,0.204,2.042,0.529,2.979,0.977c0.936,0.448,1.9,1.038,2.893,1.77c1.106,0.765,1.92,1.147,2.441,1.147
				c1.155,0,2.604-1.204,4.346-3.613h0.854l0.708,16.406h-0.806c-0.277-1.188-0.542-2.156-0.793-2.905
				c-0.252-0.749-0.59-1.53-1.013-2.344c-1.123-2.295-2.45-4.264-3.979-5.908c-1.53-1.644-3.198-2.897-5.005-3.76
				c-1.807-0.862-3.662-1.294-5.566-1.294c-2.279,0-4.134,0.606-5.566,1.819c-1.433,1.213-2.495,3.101-3.186,5.664
				c-0.692,2.563-1.038,5.823-1.038,9.778c0,2.279,0.122,4.297,0.366,6.055s0.623,3.243,1.135,4.456
				c0.513,1.213,1.16,2.226,1.941,3.04c0.96,0.977,2.128,1.721,3.503,2.234c1.375,0.513,2.876,0.769,4.504,0.769
				c1.514,0,2.966-0.195,4.358-0.586s2.693-0.972,3.906-1.746c1.212-0.773,2.323-1.729,3.333-2.869
				c0.813-0.944,1.473-1.892,1.978-2.844C75.125,44.862,75.63,43.605,76.135,42.042z"/>
		</g>
	</g>
	<g>
	</g>
	<g>
	</g>
	<g>
	</g>
	<g>
	</g>
	<g>
	</g>
	<g>
	</g>
	<g>
	</g>
	<g>
	</g>
	<g>
	</g>
	<g>
	</g>
	<g>
	</g>
	<g>
	</g>
	<g>
	</g>
	<g>
	</g>
	<g>
	</g>
</g>
</svg>
